- 
http://www.Speed.Cd 
       
http://www.Speed.Cd      fast  and The Hottest Private Tracker on the net

(((--Submit for invite!!--)))

Please Seed back to make the speed Faster!!!

------------------nfo--------------------------
-








































          
          
              
              
                    
                    
                    
                    

Bloodline.2010.DVDSCR.XviD-SiC

Poster:
[img]http://img6.imageshack.us/img6/1825/mv5bmtm3mdqzoduzov5bml5.jpg[/img]

IMDB Link:
http://www.imdb.com/title/tt1773314/

Description:
N/A

MediaInfo:
General
Complete name                    : Bloodline.2010.DVDSCR.XviD-SiC.avi
Format                           : AVI
Format/Info                      : Audio Video Interleave
File size                        : 1.65 GiB
Duration                         : 1h 32mn
Overall bit rate                 : 2 539 Kbps
Writing library                  : VirtualDub build 32842/release

Video
ID                               : 0
Format                           : MPEG-4 Visual
Format profile                   : Advanced Simple@L5
Format settings, BVOP            : 1
Format settings, QPel            : No
Format settings, GMC             : No warppoints
Format settings, Matrix          : Default (H.263)
Codec ID                         : XVID
Codec ID/Hint                    : XviD
Duration                         : 1h 32mn
Bit rate                         : 2 081 Kbps
Width                            : 720 pixels
Height                           : 352 pixels
Display aspect ratio             : 2.045
Frame rate                       : 25.000 fps
Color space                      : YUV
Chroma subsampling               : 4:2:0
Bit depth                        : 8 bits
Scan type                        : Progressive
Compression mode                 : Lossy
Bits/(Pixel*Frame)               : 0.328
Stream size                      : 1.35 GiB (82%)
Writing library                  : XviD 1.2.1 (UTC 2008-12-04)

Audio
ID                               : 1
Format                           : AC-3
Format/Info                      : Audio Coding 3
Mode extension                   : CM (complete main)
Codec ID                         : 2000
Duration                         : 1h 32mn
Bit rate mode                    : Constant
Bit rate                         : 448 Kbps
Channel(s)                       : 2 channels
Channel positions                : Front: L R
Sampling rate                    : 44.1 KHz
Bit depth                        : 16 bits
Compression mode                 : Lossy
Delay relative to video          : 145ms
Stream size                      : 298 MiB (18%)
Alignment                        : Split accross interleaves
Interleave, duration             : 40 ms (1.00 video frame)
Interleave, preload duration     : 500 ms



Screenshots:
[img]http://img841.imageshack.us/img841/6173/snap2ya.png[/img]
[img]http://img26.imageshack.us/img26/7266/snap3k.png[/img]
[img]http://img40.imageshack.us/img40/2824/snap5cb.png[/img]
[img]http://img198.imageshack.us/img198/9602/snap1af.png[/img]
[img]http://img196.imageshack.us/img196/2879/snap4jz.png[/img]

Note :   copyright warnings pops up here and there. Audio is italian with english hard coded subs 

Source : our own

Encoder: thefuzz

Enjoy!

Respects to CaptainHomey, Cyanide, CM8, Rx, THC, ELEKTRI4KA, 
Killerhz, PA, YeFsTe, BoxSlots, MrRep and everyone in the struggle...

Want our releases, contact us or find us at our home site!